# xmcd
#
# Track frame offsets: 
#        150
#        13955
#        28567
#        41885
#        56600
#        72862
#        86647
#        101360
#        115557
#        130192
#        142415
#        155615
#        169140
#        186120
#        199105
#        213245
#        226520
#        240720
#        255752
#        271730
#        285787
#        298040
#        312485
#
# Disc length: 4647 seconds
#
# Revision: 32
# Processed by: cddbd v1.5.2PL0 Copyright (c) Steve Scherf et al.
# Submitted via: ExactAudioCopy v1.2
#
DISCID=42122517
DTITLE=Various Artist - Ken Burns Jazz: The Story of America's Music [CD3]
DYEAR=2000
DGENRE=Jazz
TTITLE0=Coleman Hawkins - Body And Soul [1939]
TTITLE1=Duke Ellington And His Orchestra - Cotton Tail [1940]
TTITLE2=Duke Ellington And His Orchestra - Take The ''A'' Train [1941]
TTITLE3=Artie Shaw And His Orchestra - Begin The Beguine [1938]
TTITLE4=Glenn Miller And His Orchestra - In The Mood [1939]
TTITLE5=Tommy Dorsey And His Orchestra - Well, Git It! [1942]
TTITLE6=Billie Holiday With Eddie Heywood And His Orchestra - Solitude
TTITLE6=[1941]
TTITLE7=Gene Krupa And His Orchestra - Drum Boogie [1941]
TTITLE8=Dizzy Gillespie And His All Star Quintet - Salt Peanuts [1945]
TTITLE9=Dizzy Gillespie Sextet - Groovin' High [1945]
TTITLE10=Charlie Parker's Re-Boppers - Ko-Ko [1945]
TTITLE11=Charlie Parker Quintet - Scrapple From The Apple [1947]
TTITLE12=Charlie Parker Quintet - Embraceable You [1947]
TTITLE13=Bud Powell Trio - Get Happy [1950]
TTITLE14=Thelonious Monk - Epistrophy [1948]
TTITLE15=Thelonious Monk - Straight, No Chaser [1951]
TTITLE16=Dizzy Gillespie And His Orchestra - Manteca [1947]
TTITLE17=Miles Davis Nonet - Moon Dreams [1950]
TTITLE18=Charlie Parker - Just Friends [1949]
TTITLE19=Louis Armstrong - Rockin' Chair [1947]
TTITLE20=Sarah Vaughan And Her Trio - They Can't Take That Away From M
TTITLE20=e [1954]
TTITLE21=Chet Baker And Gerry Mulligan - Walkin' Shoes [1952]
TTITLE22=Billie Holiday - Fine And Mellow [1957]
EXTD=YEAR: 2000
EXTT0=
EXTT1=
EXTT2=
EXTT3=
EXTT4=
EXTT5=
EXTT6=
EXTT7=
EXTT8=
EXTT9=
EXTT10=
EXTT11=
EXTT12=
EXTT13=
EXTT14=
EXTT15=
EXTT16=
EXTT17=
EXTT18=
EXTT19=
EXTT20=
EXTT21=
EXTT22=
PLAYORDER=
